<?xml version="1.0" encoding="utf-8"?>
<!DOCTYPE svg PUBLIC "-//W3C//DTD SVG 1.1//EN" "http://www.w3.org/Graphics/SVG/1.1/DTD/svg11.dtd">
<svg version="1.1" id="图形" xmlns="http://www.w3.org/2000/svg" xmlns:xlink="http://www.w3.org/1999/xlink" x="0px" y="0px" width="1024px" height="1024px" viewBox="0 0 1024 1024" enable-background="new 0 0 1024 1024" xml:space="preserve">
  <path fill="#eb4f38" d="M511.964 684l375.934-138.21-78.34-460.778-297.762-159.898-297.624 160.102L136.062 545.78 511.964 684M511.962 748 64 588l92.24-544L512-148l355.5 192L960 588 511.962 748 511.962 748zM688 108l80 0L512 668 256 108l80 0 53.168 112 245.654 0L688 108zM427.146 300l84.838 178.712L596.838 300 427.146 300z" transform="translate(0, 812) scale(1, -1)"/>
</svg>
